<svg width="43" height="43" viewBox="0 0 43 43" fill="none" xmlns="http://www.w3.org/2000/svg">
<path d="M36.8079 35.8333C36.8079 36.3082 36.4229 36.6933 35.9479 36.6933C35.473 36.6933 35.0879 36.3082 35.0879 35.8333C35.0879 35.3583 35.473 34.9733 35.9479 34.9733C36.4229 34.9733 36.8079 35.3583 36.8079 35.8333Z" fill="white"/>
<path fill-rule="evenodd" clip-rule="evenodd" d="M40.6718 6.34141C40.0578 5.72734 39.0621 5.72734 38.4481 6.34141L37.5712 7.21828L36.3527 8.4368L34.7031 10.0864L33.4807 11.3088L21.7693 23.0202C21.1456 23.6439 20.1344 23.6439 19.5107 23.0202L16.0185 19.5281C15.4045 18.914 14.4088 18.914 13.7948 19.5281C13.1807 20.1421 13.1807 21.1378 13.7948 21.7518L19.1312 27.0882C19.9645 27.9215 21.3155 27.9215 22.1488 27.0882L35.2344 14.0026L36.5053 12.7317L38.253 10.984L39.498 9.73902L40.6718 8.56519C41.2859 7.95111 41.2859 6.95549 40.6718 6.34141ZM37.2318 5.12519C38.5176 3.83941 40.6023 3.83942 41.8881 5.12519C43.1738 6.41097 43.1738 8.49563 41.8881 9.78141L23.365 28.3044C21.86 29.8094 19.4199 29.8094 17.915 28.3045L12.5785 22.968C11.2928 21.6823 11.2928 19.5976 12.5785 18.3118C13.8643 17.0261 15.949 17.0261 17.2348 18.3118L20.64 21.7171L37.2318 5.12519Z" fill="white"/>
<path fill-rule="evenodd" clip-rule="evenodd" d="M12.6619 36.4664C16.498 38.617 21.0035 39.2432 25.2807 38.2203C29.5578 37.1974 33.2925 34.6004 35.7405 30.9469C38.1884 27.2934 39.1699 22.8516 38.4892 18.5069C38.1689 16.4625 37.4918 14.5103 36.5053 12.7317L35.2344 14.0026C35.9979 15.487 36.5272 17.0957 36.7899 18.7731C37.4036 22.6905 36.5187 26.6953 34.3116 29.9895C32.1044 33.2836 28.7371 35.6252 24.8806 36.5475C21.0242 37.4698 16.9618 36.9051 13.503 34.9661C10.0443 33.027 7.44317 29.8559 6.21805 26.0847C5.08173 22.5868 5.20655 18.8109 6.55421 15.4082C6.7291 14.9666 6.54283 14.4564 6.11142 14.2578C5.68002 14.0591 5.1671 14.247 4.98984 14.6877C3.46258 18.4843 3.31222 22.7067 4.58221 26.6161C5.94098 30.7987 8.82586 34.3157 12.6619 36.4664ZM33.4807 11.3088C32.7526 10.407 31.9222 9.58192 31.0002 8.85191C27.8914 6.39057 23.9693 5.19097 20.0155 5.49219C18.4482 5.6116 16.9216 5.96337 15.4814 6.52542C15.0389 6.6981 14.5298 6.50924 14.3333 6.07685C14.1368 5.64446 14.3273 5.13251 14.7688 4.95746C16.3916 4.31408 18.1149 3.91202 19.8849 3.77717C24.27 3.44308 28.6199 4.77354 32.0679 7.5034C33.0419 8.27459 33.9238 9.14146 34.7031 10.0864L33.4807 11.3088Z" fill="white"/>
<path fill-rule="evenodd" clip-rule="evenodd" d="M35.4145 5.10993C31.2925 1.6105 26.0033 -0.207284 20.6009 0.0188214C15.1986 0.244926 10.0797 2.49832 6.26455 6.32994C2.44938 10.1616 0.218018 15.29 0.0151507 20.6933C-0.187717 26.0966 1.6528 31.378 5.16992 35.4849C8.68704 39.5918 13.6225 42.2227 18.9927 42.8532C24.0776 43.4503 29.1988 42.2124 33.4408 39.3792C33.8358 39.1154 33.9199 38.5759 33.6405 38.1918C33.3611 37.8077 32.8242 37.7245 32.4283 37.9869C28.5369 40.5665 23.8486 41.6916 19.1933 41.145C14.2527 40.5649 9.71208 38.1444 6.47633 34.3661C3.24058 30.5877 1.5473 25.7289 1.73394 20.7579C1.92058 15.7868 3.97343 11.0686 7.48338 7.54354C10.9933 4.01845 15.7027 1.94533 20.6729 1.73731C25.643 1.5293 30.5091 3.20166 34.3014 6.42113C35.0372 7.04586 35.7222 7.71995 36.3527 8.4368L37.5712 7.21828C36.9061 6.46986 36.1861 5.76495 35.4145 5.10993ZM39.4038 9.59606C39.4354 9.64359 39.4668 9.69124 39.498 9.73902L38.253 10.984C39.7864 13.4271 40.7803 16.197 41.1349 19.1088C41.7015 23.7617 40.5966 28.4548 38.0338 32.3573C37.773 32.7543 37.8585 33.2909 38.2438 33.5686C38.6291 33.8463 39.1683 33.7599 39.4304 33.3638C42.2453 29.1096 43.4612 23.9832 42.8423 18.9009C42.4337 15.5462 41.2446 12.3648 39.4038 9.59606Z" fill="white"/>
</svg>
