<svg width="42" height="44" viewBox="0 0 42 44" fill="none" xmlns="http://www.w3.org/2000/svg">
<path fill-rule="evenodd" clip-rule="evenodd" d="M7.35 0.745763C7.35 1.15764 7.70258 1.49153 8.1375 1.49153H9.45C10.3198 1.49153 11.025 2.1593 11.025 2.98305V8.94915C11.025 9.7729 10.3198 10.4407 9.45 10.4407H3.15C2.28015 10.4407 1.575 9.7729 1.575 8.94915V2.98305C1.575 2.1593 2.28015 1.49153 3.15 1.49153H4.4625C4.89742 1.49153 5.25 1.15764 5.25 0.745763C5.25 0.333889 4.89742 0 4.4625 0H3.15C1.4103 0 0 1.33556 0 2.98305V8.94915C0 10.5966 1.4103 11.9322 3.15 11.9322H9.45C11.1897 11.9322 12.6 10.5966 12.6 8.94915V2.98305C12.6 1.33556 11.1897 0 9.45 0H8.1375C7.70258 0 7.35 0.333889 7.35 0.745763Z" fill="white"/>
<path fill-rule="evenodd" clip-rule="evenodd" d="M24.15 1.49153H17.85C16.9802 1.49153 16.275 2.1593 16.275 2.98305V8.94915C16.275 9.7729 16.9802 10.4407 17.85 10.4407H24.15C25.0198 10.4407 25.725 9.7729 25.725 8.94915V2.98305C25.725 2.1593 25.0198 1.49153 24.15 1.49153ZM17.85 0C16.1103 0 14.7 1.33556 14.7 2.98305V8.94915C14.7 10.5966 16.1103 11.9322 17.85 11.9322H24.15C25.8897 11.9322 27.3 10.5966 27.3 8.94915V2.98305C27.3 1.33556 25.8897 0 24.15 0H17.85Z" fill="white"/>
<path fill-rule="evenodd" clip-rule="evenodd" d="M32.55 1.49153H38.85C39.7198 1.49153 40.425 2.1593 40.425 2.98305V8.94915C40.425 9.7729 39.7198 10.4407 38.85 10.4407H37.5375C37.1026 10.4407 36.75 10.7746 36.75 11.1864C36.75 11.5983 37.1026 11.9322 37.5375 11.9322H38.85C40.5897 11.9322 42 10.5966 42 8.94915V2.98305C42 1.33556 40.5897 0 38.85 0H32.55C30.8103 0 29.4 1.33556 29.4 2.98305V8.94915C29.4 10.5966 30.8103 11.9322 32.55 11.9322H33.8625C34.2974 11.9322 34.65 11.5983 34.65 11.1864C34.65 10.7746 34.2974 10.4407 33.8625 10.4407H32.55C31.6802 10.4407 30.975 9.7729 30.975 8.94915V2.98305C30.975 2.1593 31.6802 1.49153 32.55 1.49153Z" fill="white"/>
<path fill-rule="evenodd" clip-rule="evenodd" d="M9.48185 3.94724C9.78938 4.23848 9.78938 4.71067 9.48185 5.00191L5.775 8.51229L3.64315 6.49344C3.33562 6.2022 3.33562 5.73001 3.64315 5.43877C3.95069 5.14753 4.44931 5.14753 4.75685 5.43877L5.775 6.40296L8.36815 3.94724C8.67569 3.656 9.17431 3.656 9.48185 3.94724Z" fill="white"/>
<path fill-rule="evenodd" clip-rule="evenodd" d="M14.4375 15.661C14.4375 14.2881 15.6128 13.1751 17.0625 13.1751C18.5122 13.1751 19.6875 14.2881 19.6875 15.661V19.1412H20.475C21.7967 19.1412 22.911 19.9822 23.2538 21.1299H24.15C25.4717 21.1299 26.586 21.9709 26.9288 23.1186H27.825C29.4197 23.1186 30.7125 24.3429 30.7125 25.8531V35.843L30.1875 39.8204V44H13.9125V40.0226L10.7625 36.0452V32.8136C10.7625 32.4017 11.1151 32.0678 11.55 32.0678C11.9849 32.0678 12.3375 32.4017 12.3375 32.8136V35.548L15.4875 39.5254V42.5085H28.6125V39.7276L29.1375 35.7502V25.8531C29.1375 25.1667 28.5499 24.6102 27.825 24.6102H27.0375V29.0847C27.0375 29.4966 26.6849 29.8305 26.25 29.8305C25.8151 29.8305 25.4625 29.4966 25.4625 29.0847V23.8644C25.4625 23.1779 24.8749 22.6215 24.15 22.6215H23.3625V29.0847C23.3625 29.4966 23.0099 29.8305 22.575 29.8305C22.1401 29.8305 21.7875 29.4966 21.7875 29.0847V21.8757C21.7875 21.1893 21.1999 20.6328 20.475 20.6328H19.6875V29.0847C19.6875 29.4966 19.3349 29.8305 18.9 29.8305C18.4651 29.8305 18.1125 29.4966 18.1125 29.0847V15.661C18.1125 15.1119 17.6424 14.6667 17.0625 14.6667C16.4826 14.6667 16.0125 15.1119 16.0125 15.661V30.8249C16.0125 31.2367 15.6599 31.5706 15.225 31.5706C14.7901 31.5706 14.4375 31.2367 14.4375 30.8249V25.6045H13.65C12.9251 25.6045 12.3375 26.161 12.3375 26.8475V29.8305C12.3375 30.2424 11.9849 30.5763 11.55 30.5763C11.1151 30.5763 10.7625 30.2424 10.7625 29.8305V26.8475C10.7625 25.3373 12.0553 24.113 13.65 24.113H14.4375V15.661Z" fill="white"/>
</svg>
