<svg width="43" height="44" viewBox="0 0 43 44" fill="none" xmlns="http://www.w3.org/2000/svg">
<path fill-rule="evenodd" clip-rule="evenodd" d="M37.4422 31.2502C38.9191 29.4186 40.033 27.3102 40.7159 25.0395C41.5786 22.1708 41.7266 19.1318 41.1468 16.1917C40.567 13.2515 39.2773 10.501 37.392 8.18368C35.5067 5.86638 33.0839 4.05386 30.3382 2.90667C27.5925 1.75948 24.6088 1.31302 21.6512 1.60685C18.6936 1.90069 15.8536 2.92573 13.3825 4.59119C10.9115 6.25666 8.88581 8.51113 7.48488 11.1549C6.37599 13.2476 5.68563 15.533 5.44598 17.8816C5.43777 17.9621 5.4603 18.0313 5.52372 18.0974C5.59356 18.1701 5.70864 18.2289 5.853 18.2289L22.5908 18.2289C23.5228 18.2289 24.4165 18.6023 25.0755 19.267L36.9109 31.2055C37.013 31.3085 37.1356 31.349 37.236 31.3474C37.3271 31.3459 37.3916 31.313 37.4422 31.2502ZM38.6105 32.2088C37.9108 33.0766 36.6302 33.0706 35.8461 32.2797L24.0106 20.3412C23.6341 19.9613 23.1234 19.7479 22.5908 19.7479L5.853 19.7479C4.74404 19.7479 3.83439 18.8388 3.94794 17.726C4.20755 15.1817 4.95545 12.7059 6.15674 10.4388C7.67442 7.57473 9.86892 5.13238 12.5459 3.32813C15.2228 1.52388 18.2996 0.413414 21.5036 0.0950965C24.7076 -0.223221 27.94 0.260437 30.9145 1.50323C33.889 2.74602 36.5137 4.70958 38.5561 7.21999C40.5986 9.73039 41.9957 12.7101 42.6238 15.8953C43.2519 19.0805 43.0916 22.3727 42.157 25.4805C41.4173 27.9403 40.2105 30.2245 38.6105 32.2088Z" fill="white"/>
<path fill-rule="evenodd" clip-rule="evenodd" d="M1.50764 24.7306C1.68657 26.4841 2.11704 28.2055 2.78828 29.8401C3.69646 32.0518 5.0276 34.0613 6.7057 35.754C8.38379 37.4467 10.376 38.7894 12.5685 39.7055C14.1891 40.3826 15.8956 40.8168 17.6339 40.9973C17.7137 41.0056 17.7824 40.9829 17.8478 40.9189C17.9199 40.8485 17.9782 40.7324 17.9782 40.5868L17.9782 24.8897C17.9782 24.61 17.7535 24.3833 17.4762 24.3833L1.91466 24.3833C1.77029 24.3833 1.65521 24.4421 1.58538 24.5148C1.52196 24.5809 1.49943 24.6501 1.50764 24.7306ZM0.00959532 24.8861C-0.103946 23.7734 0.805701 22.8642 1.91466 22.8642H17.4762C18.5852 22.8642 19.4842 23.7711 19.4842 24.8897L19.4842 40.5868C19.4842 41.7054 18.5829 42.6229 17.4797 42.5084C15.5965 42.3129 13.7478 41.8425 11.9922 41.109C9.61696 40.1165 7.45876 38.6619 5.64082 36.8281C3.82289 34.9944 2.38082 32.8174 1.39696 30.4214C0.669774 28.6506 0.20343 26.7857 0.00959532 24.8861Z" fill="white"/>
<path fill-rule="evenodd" clip-rule="evenodd" d="M24.9904 42.4422C27.0468 42.2687 29.0624 41.7409 30.9484 40.8781C32.8345 40.0153 34.556 38.8335 36.0402 37.3873L24.9904 27.6263V42.4422ZM24.488 43.9987C23.9343 44.0274 23.4845 43.5713 23.4845 43.012V26.5098C23.4845 25.6395 24.5008 25.1746 25.1499 25.7479L37.4573 36.6199C37.8744 36.9884 37.9183 37.6302 37.532 38.0316C35.8269 39.8034 33.8053 41.2392 31.5704 42.2616C29.3356 43.284 26.9328 43.8721 24.488 43.9987Z" fill="white"/>
<path fill-rule="evenodd" clip-rule="evenodd" d="M9.86891 28.8624C10.1462 28.8624 10.3709 28.6357 10.3709 28.356C10.3709 28.0764 10.1462 27.8497 9.86891 27.8497C9.59167 27.8497 9.36693 28.0764 9.36693 28.356C9.36693 28.6357 9.59167 28.8624 9.86891 28.8624ZM9.86891 30.3815C10.9779 30.3815 11.8769 29.4746 11.8769 28.356C11.8769 27.2374 10.9779 26.3306 9.86891 26.3306C8.75996 26.3306 7.86097 27.2374 7.86097 28.356C7.86097 29.4746 8.75996 30.3815 9.86891 30.3815Z" fill="white"/>
<path fill-rule="evenodd" clip-rule="evenodd" d="M13.8848 33.926C14.162 33.926 14.3868 33.6993 14.3868 33.4196C14.3868 33.1399 14.162 32.9132 13.8848 32.9132C13.6076 32.9132 13.3828 33.1399 13.3828 33.4196C13.3828 33.6993 13.6076 33.926 13.8848 33.926ZM13.8848 35.445C14.9938 35.445 15.8928 34.5382 15.8928 33.4196C15.8928 32.301 14.9938 31.3942 13.8848 31.3942C12.7758 31.3942 11.8769 32.301 11.8769 33.4196C11.8769 34.5382 12.7758 35.445 13.8848 35.445Z" fill="white"/>
<path fill-rule="evenodd" clip-rule="evenodd" d="M14.9192 27.819C15.2133 28.1156 15.2133 28.5965 14.9192 28.8931L9.89936 33.9567C9.60531 34.2533 9.12855 34.2533 8.83449 33.9567C8.54043 33.6601 8.54043 33.1791 8.83449 32.8825L13.8544 27.819C14.1484 27.5223 14.6252 27.5223 14.9192 27.819Z" fill="white"/>
<path fill-rule="evenodd" clip-rule="evenodd" d="M13.1318 12.6589C13.1318 12.2395 13.4689 11.8994 13.8848 11.8994H20.4106C20.8265 11.8994 21.1636 12.2395 21.1636 12.6589C21.1636 13.0784 20.8265 13.4185 20.4106 13.4185H13.8848C13.4689 13.4185 13.1318 13.0784 13.1318 12.6589ZM13.1318 14.6844C13.1318 14.2649 13.4689 13.9248 13.8848 13.9248H21.4146C21.8305 13.9248 22.1676 14.2649 22.1676 14.6844C22.1676 15.1039 21.8305 15.4439 21.4146 15.4439H13.8848C13.4689 15.4439 13.1318 15.1039 13.1318 14.6844Z" fill="white"/>
<path d="M14.5876 9.87398C14.5876 10.2935 14.2505 10.6335 13.8346 10.6335C13.4188 10.6335 13.0816 10.2935 13.0816 9.87398C13.0816 9.4545 13.4188 9.11444 13.8346 9.11444C14.2505 9.11444 14.5876 9.4545 14.5876 9.87398Z" fill="white"/>
<path d="M16.3947 9.87398C16.3947 10.2935 16.0576 10.6335 15.6418 10.6335C15.2259 10.6335 14.8888 10.2935 14.8888 9.87398C14.8888 9.4545 15.2259 9.11444 15.6418 9.11444C16.0576 9.11444 16.3947 9.4545 16.3947 9.87398Z" fill="white"/>
</svg>
