<svg width="10" height="13" viewBox="0 0 10 13" fill="none" xmlns="http://www.w3.org/2000/svg">
<path fill-rule="evenodd" clip-rule="evenodd" d="M0 4.93567C0 2.21008 2.20953 0 4.93567 0C7.6618 0 9.87134 2.21008 9.87134 4.93567C9.87134 6.80025 9.04817 8.52225 8.13398 9.87134C7.21485 11.2204 6.16739 12.2459 5.63763 12.7285C5.23674 13.0905 4.63459 13.0905 4.23371 12.7285C3.70394 12.2459 2.65649 11.2204 1.73735 9.87134C0.82316 8.52225 0 6.80025 0 4.93567ZM4.93567 2.74219C3.72423 2.74219 2.74203 3.72384 2.74203 4.93582C2.74203 6.1478 3.72423 7.12945 4.93567 7.12945C6.1471 7.12945 7.12929 6.1478 7.12929 4.93582C7.12929 3.72384 6.1471 2.74219 4.93567 2.74219Z" fill="#B20237"/>
</svg>
